<svg width="346" height="44" viewBox="0 0 346 44" fill="none" xmlns="http://www.w3.org/2000/svg">
<path d="M62.5478 40.5732C62.276 40.8219 61.9177 40.9462 61.473 40.9462C60.8935 40.9462 60.4361 40.7292 60.1011 40.2971C59.766 39.8651 59.5995 39.2813 59.5995 38.5479C59.5995 37.8145 59.766 37.2455 60.0968 36.8261C60.4277 36.4067 60.8872 36.196 61.473 36.196C61.8819 36.196 62.2191 36.3013 62.4846 36.5121C62.7502 36.7228 62.9251 37.0158 63.0094 37.3951H64.0568C63.9746 36.7376 63.6964 36.217 63.2222 35.8314C62.7375 35.4457 62.1369 35.2539 61.4203 35.2539C60.5563 35.2539 59.8566 35.5553 59.3255 36.1601C58.786 36.7587 58.5183 37.5553 58.5183 38.5479C58.5183 39.5405 58.7881 40.354 59.3255 40.9631C59.8587 41.5785 60.5563 41.8862 61.4203 41.8862C62.1769 41.8862 62.7944 41.6775 63.2665 41.2602C63.7407 40.843 64.0147 40.2634 64.0926 39.5237H63.0536C62.9883 39.9747 62.8197 40.3224 62.5478 40.5711V40.5732Z" fill="white"/>
<path d="M77.2453 38.9042H80.396V37.9811H77.2453V36.3036H80.7079V35.3889H76.1705V41.7114H80.788V40.7967H77.2453V38.9042Z" fill="white"/>
<path d="M97.0388 40.0064L94.1262 35.3889H93.024V41.7114H94.0735V37.1107L96.9671 41.7114H98.0862V35.3889H97.0388V40.0064Z" fill="white"/>
<path d="M110.093 36.3373H112.099V41.7114H113.174V36.3373H115.172V35.3889H110.093V36.3373Z" fill="white"/>
<path d="M130.925 38.6555C131.298 38.5544 131.585 38.3689 131.787 38.1012C131.987 37.8315 132.088 37.4964 132.088 37.0939C132.088 36.5733 131.92 36.1581 131.583 35.8505C131.245 35.5428 130.759 35.3889 130.126 35.3889H127.186V41.7114H128.261V39.1276H129.806C130.156 39.1276 130.411 39.1992 130.569 39.3404C130.729 39.4838 130.824 39.7219 130.853 40.0591L131.022 41.7114H132.124L131.875 39.705C131.804 39.1255 131.488 38.7756 130.925 38.6576V38.6555ZM130.708 37.9622C130.497 38.1392 130.194 38.2277 129.798 38.2277H128.261V36.3015H129.958C130.308 36.3015 130.571 36.3836 130.752 36.5459C130.933 36.7082 131.024 36.9358 131.024 37.2245C131.024 37.5386 130.919 37.783 130.708 37.9622Z" fill="white"/>
<path d="M147.222 35.2539C146.358 35.2539 145.644 35.5553 145.081 36.1601C144.518 36.7692 144.238 37.5637 144.238 38.5395C144.238 39.5152 144.518 40.3393 145.081 40.9546C145.637 41.5764 146.352 41.8862 147.222 41.8862C148.093 41.8862 148.822 41.5743 149.389 40.9546C149.951 40.3393 150.232 39.5342 150.232 38.5395C150.232 37.5447 149.951 36.7755 149.389 36.1601C148.82 35.5553 148.099 35.2539 147.222 35.2539ZM148.626 40.2887C148.272 40.727 147.806 40.9462 147.231 40.9462C146.655 40.9462 146.194 40.727 145.846 40.2887C145.496 39.8503 145.323 39.2666 145.323 38.5395C145.323 37.8124 145.498 37.2729 145.846 36.8345C146.19 36.4088 146.651 36.196 147.231 36.196C147.81 36.196 148.27 36.4088 148.626 36.8345C148.976 37.2729 149.151 37.8419 149.151 38.5395C149.151 39.237 148.976 39.8503 148.626 40.2887Z" fill="white"/>
<path d="M178.143 35.3889H175.844V41.7114H178.152C179.1 41.7114 179.817 41.4353 180.305 40.8852C180.794 40.3352 181.037 39.5554 181.037 38.5501C181.037 37.5449 180.794 36.7419 180.31 36.2024C179.825 35.6608 179.102 35.3889 178.143 35.3889ZM179.503 40.2593C179.201 40.6176 178.714 40.7967 178.046 40.7967H176.919V36.2867H177.975C178.672 36.2867 179.178 36.4658 179.488 36.8241C179.798 37.1824 179.954 37.7577 179.954 38.5522C179.954 39.3468 179.802 39.9031 179.5 40.2614L179.503 40.2593Z" fill="white"/>
<path d="M194.278 38.9042H197.431V37.9811H194.278V36.3036H197.741V35.3889H193.203V41.7114H197.821V40.7967H194.278V38.9042Z" fill="white"/>
<path d="M226.55 38.1329L225.359 37.8589C224.75 37.7282 224.445 37.4522 224.445 37.0328C224.445 36.7546 224.554 36.5333 224.773 36.371C224.993 36.2088 225.294 36.1266 225.68 36.1266C226.099 36.1266 226.436 36.2235 226.687 36.4195C226.938 36.6155 227.085 36.8895 227.127 37.2456H228.166C228.12 36.6239 227.876 36.135 227.437 35.7809C226.999 35.4269 226.417 35.2477 225.688 35.2477C224.959 35.2477 224.388 35.4269 223.992 35.7809C223.589 36.1476 223.387 36.6007 223.387 37.1403C223.387 38.0233 223.941 38.5902 225.047 38.8452L226.078 39.0855C226.487 39.174 226.78 39.292 226.957 39.4395C227.134 39.5871 227.222 39.7852 227.222 40.0338C227.222 40.3415 227.102 40.5797 226.862 40.7483C226.622 40.9169 226.28 41.0012 225.836 41.0012C224.841 41.0012 224.312 40.5691 224.247 39.7051H223.199C223.241 40.409 223.488 40.9485 223.941 41.3215C224.394 41.6945 225.022 41.88 225.827 41.88C226.632 41.88 227.227 41.7051 227.661 41.3552C228.095 41.0054 228.314 40.5354 228.314 39.9432C228.314 39.0075 227.724 38.4048 226.546 38.1308L226.55 38.1329Z" fill="white"/>
<path d="M241.549 38.9042H244.7V37.9811H241.549V36.3036H245.012V35.3889H240.474V41.7114H245.092V40.7967H241.549V38.9042Z" fill="white"/>
<path d="M261.066 38.6555C261.439 38.5544 261.726 38.3689 261.928 38.1012C262.129 37.8315 262.23 37.4964 262.23 37.0939C262.23 36.5733 262.061 36.1581 261.724 35.8505C261.387 35.5428 260.9 35.3889 260.268 35.3889H257.328V41.7114H258.403V39.1276H259.947C260.297 39.1276 260.552 39.1992 260.71 39.3404C260.87 39.4838 260.965 39.7219 260.995 40.0591L261.163 41.7114H262.266L262.017 39.705C261.945 39.1255 261.629 38.7756 261.066 38.6576V38.6555ZM260.849 37.9622C260.639 38.1392 260.335 38.2277 259.939 38.2277H258.403V36.3015H260.099C260.449 36.3015 260.712 36.3836 260.894 36.5459C261.075 36.7082 261.166 36.9358 261.166 37.2245C261.166 37.5386 261.06 37.783 260.849 37.9622Z" fill="white"/>
<path d="M277.104 38.9927L276.679 40.5206L276.253 38.9927L275.062 35.3889H273.899L276.11 41.7114H277.212L279.414 35.3889H278.278L277.104 38.9927Z" fill="white"/>
<path d="M292.504 35.3889H291.429V41.7114H292.504V35.3889Z" fill="white"/>
<path d="M308.738 40.5732C308.466 40.8219 308.108 40.9462 307.663 40.9462C307.083 40.9462 306.626 40.7292 306.291 40.2971C305.956 39.8651 305.789 39.2813 305.789 38.5479C305.789 37.8145 305.954 37.2455 306.287 36.8261C306.618 36.4067 307.077 36.196 307.663 36.196C308.072 36.196 308.409 36.3013 308.674 36.5121C308.94 36.7228 309.115 37.0158 309.197 37.3951H310.245C310.162 36.7376 309.884 36.217 309.41 35.8314C308.925 35.4457 308.325 35.2539 307.608 35.2539C306.744 35.2539 306.044 35.5553 305.513 36.1601C304.974 36.7587 304.704 37.5553 304.704 38.5479C304.704 39.471 304.936 40.2297 305.397 40.8219C305.846 41.4141 306.457 41.7597 307.227 41.8609L306.837 42.4741L307.121 42.9083H307.406C307.612 42.9083 307.716 42.9947 307.716 43.1654C307.716 43.3656 307.545 43.4668 307.201 43.4668H306.936V44H307.292C307.676 44 307.981 43.9199 308.202 43.7597C308.424 43.5995 308.535 43.3783 308.535 43.0937C308.535 42.8451 308.455 42.6533 308.295 42.5163C308.135 42.3793 307.918 42.3119 307.646 42.3119H307.505L307.789 41.8862C308.5 41.8503 309.073 41.6248 309.511 41.2118C309.95 40.7987 310.207 40.2339 310.285 39.5258H309.246C309.18 39.9747 309.012 40.3245 308.74 40.5732H308.738Z" fill="white"/>
<path d="M325.113 35.2539C324.249 35.2539 323.534 35.5553 322.972 36.1601C322.409 36.7692 322.129 37.5637 322.129 38.5395C322.129 39.5152 322.409 40.3393 322.972 40.9546C323.528 41.5764 324.242 41.8862 325.113 41.8862C325.983 41.8862 326.712 41.5743 327.279 40.9546C327.842 40.3393 328.122 39.5342 328.122 38.5395C328.122 37.5447 327.842 36.7755 327.279 36.1601C326.71 35.5553 325.989 35.2539 325.113 35.2539ZM326.516 40.2887C326.162 40.727 325.697 40.9462 325.121 40.9462C324.546 40.9462 324.084 40.727 323.737 40.2887C323.387 39.8503 323.214 39.2666 323.214 38.5395C323.214 37.8124 323.389 37.2729 323.737 36.8345C324.08 36.4088 324.542 36.196 325.121 36.196C325.701 36.196 326.16 36.4088 326.516 36.8345C326.866 37.2729 327.041 37.8419 327.041 38.5395C327.041 39.237 326.866 39.8503 326.516 40.2887Z" fill="white"/>
<path d="M343.406 38.1329L342.215 37.8589C341.606 37.7282 341.3 37.4522 341.3 37.0328C341.3 36.7546 341.41 36.5333 341.629 36.371C341.848 36.2088 342.15 36.1266 342.535 36.1266C342.955 36.1266 343.292 36.2235 343.543 36.4195C343.794 36.6155 343.941 36.8895 343.983 37.2456H345.022C344.976 36.6239 344.731 36.135 344.293 35.7809C343.855 35.4269 343.273 35.2477 342.544 35.2477C341.815 35.2477 341.244 35.4269 340.847 35.7809C340.445 36.1476 340.243 36.6007 340.243 37.1403C340.243 38.0233 340.797 38.5902 341.903 38.8452L342.934 39.0855C343.343 39.174 343.636 39.292 343.813 39.4395C343.99 39.5871 344.078 39.7852 344.078 40.0338C344.078 40.3415 343.958 40.5797 343.718 40.7483C343.477 40.9169 343.136 41.0012 342.691 41.0012C341.697 41.0012 341.168 40.5691 341.102 39.7051H340.055C340.097 40.409 340.344 40.9485 340.797 41.3215C341.25 41.6945 341.878 41.88 342.683 41.88C343.488 41.88 344.082 41.7051 344.516 41.3552C344.951 41.0054 345.17 40.5354 345.17 39.9432C345.17 39.0075 344.58 38.4048 343.402 38.1308L343.406 38.1329Z" fill="white"/>
<path d="M224.118 3.86279H219.501V23.572H239.711V19.9872H224.118V3.86279Z" fill="#D9292A"/>
<path d="M253.431 3.86273L240.301 23.5719H245.397L250.413 15.848H259.772L264.687 23.5719H269.838L256.792 3.86273H253.433H253.431ZM252.95 11.9365L255.138 8.56664L257.281 11.9365H252.95Z" fill="#D9292A"/>
<path d="M288.036 11.2263H276.251C274.963 11.2263 274.432 10.8617 274.432 10.0229V8.62354C274.432 7.72786 275.047 7.42016 276.251 7.42016H293.3V3.86273H276.251C271.631 3.86273 269.867 5.79529 269.867 8.65094V9.99551C269.867 12.8512 271.631 14.7816 276.251 14.7816H288.036C289.296 14.7816 289.827 15.0893 289.827 15.985V18.8132C289.827 19.7658 289.324 19.9892 288.036 19.9892H270.512V23.5719H288.036C292.655 23.5719 294.419 21.612 294.419 18.7563V16.0124C294.419 13.1567 292.655 11.2263 288.036 11.2263Z" fill="#D9292A"/>
<path d="M297.275 23.5719H318.049V19.9871H301.838V14.9481H317.18V11.3654H301.838V7.41806H318.049V3.86273H297.275V23.5719Z" fill="#D9292A"/>
<path d="M344.504 10.0503V8.62143C344.504 5.79319 342.74 3.86273 338.15 3.86273H321.016V23.5719H325.579V14.809H334.984L339.381 23.5719H344.28L339.857 14.7542C343.385 14.2779 344.504 12.4023 344.504 10.0503ZM339.914 10.0777C339.914 11.0303 339.353 11.2537 338.15 11.2537H325.581V7.41806H338.15C339.298 7.41806 339.914 7.78265 339.914 8.56664V10.0777Z" fill="#D9292A"/>
<path d="M71.277 4.0567L58.1474 23.7659H63.2433L68.3855 15.8481H77.4941L82.5331 23.7659H87.6838L74.6384 4.0567H71.2791H71.277ZM70.9229 11.9345L72.9841 8.7585L75.003 11.9345H70.9208H70.9229Z" fill="white"/>
<path d="M93.9556 4.05676H89.336V23.766H109.549V20.1832H93.9556V4.05676Z" fill="white"/>
<path d="M116.662 4.05676H112.099V23.766H116.662V4.05676Z" fill="white"/>
<path d="M143.005 17.551L124.221 4.05676H120.274V23.766H124.249V9.40556L144.769 23.766H147.007V4.05676H143.005V17.551Z" fill="white"/>
<path d="M170.021 11.5594H155.016V4.05676H150.453V23.766H155.016V15.1442H170.021V23.766H174.613V4.05676H170.021V11.5594Z" fill="white"/>
<path d="M200.622 23.766H205.772L192.727 4.05676H189.368L176.238 23.766H181.334L186.476 15.846H195.585L200.622 23.766ZM189.014 11.9366L191.075 8.76067L193.094 11.9366H189.011H189.014Z" fill="white"/>
<path d="M19.1421 11.9368C18.4024 10.2108 16.6911 9.00317 14.6953 9.00317C12.023 9.00317 9.85861 11.1697 9.85861 13.8398C9.85861 16.51 12.0251 18.6765 14.6953 18.6765C16.6911 18.6765 18.4024 17.4668 19.1421 15.7429H31.8059L34.2675 11.9368H19.1421Z" fill="#DA282A"/>
<path d="M5.9514 7.65197C7.35277 7.65197 8.48881 6.51593 8.48881 5.11456C8.48881 3.71319 7.35277 2.57715 5.9514 2.57715C4.55002 2.57715 3.41399 3.71319 3.41399 5.11456C3.41399 6.51593 4.55002 7.65197 5.9514 7.65197Z" fill="#DA282A"/>
<path d="M23.5699 7.65197C24.9713 7.65197 26.1074 6.51593 26.1074 5.11456C26.1074 3.71319 24.9713 2.57715 23.5699 2.57715C22.1686 2.57715 21.0325 3.71319 21.0325 5.11456C21.0325 6.51593 22.1686 7.65197 23.5699 7.65197Z" fill="#DA282A"/>
<path d="M5.9514 25.0178C7.35277 25.0178 8.48881 23.8817 8.48881 22.4803C8.48881 21.079 7.35277 19.9429 5.9514 19.9429C4.55002 19.9429 3.41399 21.079 3.41399 22.4803C3.41399 23.8817 4.55002 25.0178 5.9514 25.0178Z" fill="#DA282A"/>
<path d="M3.36758 16.3898C4.76895 16.3898 5.90499 15.2537 5.90499 13.8524C5.90499 12.451 4.76895 11.3149 3.36758 11.3149C1.96621 11.3149 0.83017 12.451 0.83017 13.8524C0.83017 15.2537 1.96621 16.3898 3.36758 16.3898Z" fill="#DA282A"/>
<path d="M14.7606 5.07464C16.162 5.07464 17.298 3.9386 17.298 2.53723C17.298 1.13585 16.162 -0.000183105 14.7606 -0.000183105C13.3592 -0.000183105 12.2232 1.13585 12.2232 2.53723C12.2232 3.9386 13.3592 5.07464 14.7606 5.07464Z" fill="#DA282A"/>
<path d="M14.7606 27.6774C16.162 27.6774 17.298 26.5413 17.298 25.1399C17.298 23.7386 16.162 22.6025 14.7606 22.6025C13.3592 22.6025 12.2232 23.7386 12.2232 25.1399C12.2232 26.5413 13.3592 27.6774 14.7606 27.6774Z" fill="#DA282A"/>
<path d="M23.5699 25.0178C24.9713 25.0178 26.1074 23.8817 26.1074 22.4803C26.1074 21.079 24.9713 19.9429 23.5699 19.9429C22.1686 19.9429 21.0325 21.079 21.0325 22.4803C21.0325 23.8817 22.1686 25.0178 23.5699 25.0178Z" fill="#DA282A"/>
</svg>
