<svg xmlns="http://www.w3.org/2000/svg" viewBox="0 0 346 42.07"><defs><style>.cls-1{fill:#d9292a;}.cls-2{fill:#fff;}.cls-3{fill:#da282a;}</style></defs><g id="Layer_2" data-name="Layer 2"><g id="Layer_3" data-name="Layer 3"><g id="Laser"><polygon class="cls-1" points="224.8 3.89 220.15 3.89 220.15 23.73 240.5 23.73 240.5 20.12 224.8 20.12 224.8 3.89"/><path class="cls-1" d="M254.31,3.89,241.09,23.73h5.13L251.27,16h9.42l4.95,7.78h5.19L257.69,3.89ZM253.83,12l2.2-3.4,2.16,3.4Z"/><path class="cls-1" d="M289.15,11.3H277.28c-1.29,0-1.83-.36-1.83-1.21V8.68c0-.9.62-1.21,1.83-1.21h17.17V3.89H277.28c-4.65,0-6.42,1.94-6.42,4.82v1.35c0,2.88,1.77,4.82,6.42,4.82h11.87c1.27,0,1.8.31,1.8,1.21v2.85c0,1-.5,1.18-1.8,1.18H271.51v3.61h17.64c4.65,0,6.42-2,6.42-4.85V16.12C295.57,13.25,293.8,11.3,289.15,11.3Z"/><polygon class="cls-1" points="298.45 23.73 319.36 23.73 319.36 20.12 303.05 20.12 303.05 15.05 318.49 15.05 318.49 11.44 303.05 11.44 303.05 7.47 319.36 7.47 319.36 3.89 298.45 3.89 298.45 23.73"/><path class="cls-1" d="M346,10.12V8.68c0-2.85-1.78-4.79-6.4-4.79H322.35V23.73H327V14.91h9.47l4.42,8.82h4.93l-4.45-8.88C344.87,14.37,346,12.49,346,10.12Zm-4.62,0c0,.95-.57,1.18-1.78,1.18H327V7.47H339.6c1.16,0,1.78.36,1.78,1.15Z"/></g><g id="Alinha"><path class="cls-2" d="M70.92,4.09,57.71,23.93h5.13L68,16h9.17l5.07,8h5.19L74.31,4.09ZM70.57,12l2.07-3.2,2,3.2Z"/><polygon class="cls-2" points="93.76 4.08 89.11 4.08 89.11 23.93 109.45 23.93 109.45 20.32 93.76 20.32 93.76 4.08"/><rect class="cls-2" x="112.02" y="4.09" width="4.59" height="19.84"/><polygon class="cls-2" points="143.14 17.67 124.22 4.08 120.25 4.08 120.25 23.93 124.25 23.93 124.25 9.47 144.91 23.93 147.17 23.93 147.17 4.08 143.14 4.08 143.14 17.67"/><polygon class="cls-2" points="170.34 11.64 155.23 11.64 155.23 4.08 150.64 4.08 150.64 23.93 155.23 23.93 155.23 15.25 170.34 15.25 170.34 23.93 174.96 23.93 174.96 4.08 170.34 4.08 170.34 11.64"/><path class="cls-2" d="M201.14,23.93h5.19L193.2,4.08h-3.39L176.6,23.93h5.13l5.17-8h9.17ZM189.46,12l2.07-3.2,2,3.2Z"/></g><g id="Símbolo"><path class="cls-3" d="M18.44,12a4.87,4.87,0,1,0,0,3.83H31.19L33.66,12Z"/><circle class="cls-3" cx="5.16" cy="5.15" r="2.55"/><circle class="cls-3" cx="22.89" cy="5.15" r="2.55"/><circle class="cls-3" cx="5.16" cy="22.63" r="2.55"/><circle class="cls-3" cx="2.55" cy="13.95" r="2.55"/><circle class="cls-3" cx="14.02" cy="2.55" r="2.55"/><circle class="cls-3" cx="14.02" cy="25.31" r="2.55"/><circle class="cls-3" cx="22.89" cy="22.63" r="2.55"/></g><path class="cls-2" d="M88.05,35.21h2.64a2.41,2.41,0,0,1,1.7.57A2,2,0,0,1,93,37.34,2.09,2.09,0,0,1,92.37,39a2.55,2.55,0,0,1-1.8.58H89.43v2.31H88.05Zm1.38,3.16h1a1.43,1.43,0,0,0,.91-.26.91.91,0,0,0,.31-.75,1,1,0,0,0-.29-.73,1.16,1.16,0,0,0-.79-.26H89.43Z"/><path class="cls-2" d="M109.89,41.09a3,3,0,0,1-2.27,1,2.9,2.9,0,0,1-2.24-1,3.68,3.68,0,0,1-.89-2.57,3.58,3.58,0,0,1,.88-2.53,3,3,0,0,1,2.25-.94,3,3,0,0,1,2.27.94,3.47,3.47,0,0,1,.91,2.53A3.61,3.61,0,0,1,109.89,41.09Zm-3.54-.86a1.47,1.47,0,0,0,1.27.64,1.56,1.56,0,0,0,1.31-.64,2.76,2.76,0,0,0,.49-1.71,2.65,2.65,0,0,0-.49-1.65,1.56,1.56,0,0,0-1.31-.63,1.48,1.48,0,0,0-1.27.63,2.65,2.65,0,0,0-.48,1.65A2.8,2.8,0,0,0,106.35,40.23Z"/><path class="cls-2" d="M125.32,42.07a3.16,3.16,0,0,1-2-.61,2.07,2.07,0,0,1-.77-1.67h1.35a1.08,1.08,0,0,0,.41.85,1.64,1.64,0,0,0,1,.3,1.56,1.56,0,0,0,.89-.22.7.7,0,0,0,.33-.61.57.57,0,0,0-.24-.5,2.11,2.11,0,0,0-.78-.31L124.3,39a2.33,2.33,0,0,1-1.21-.67,1.73,1.73,0,0,1-.43-1.18,2,2,0,0,1,.65-1.48,2.56,2.56,0,0,1,1.84-.6,3,3,0,0,1,1.92.59,2.18,2.18,0,0,1,.78,1.59h-1.34a1.09,1.09,0,0,0-.43-.77,1.44,1.44,0,0,0-.92-.28,1.32,1.32,0,0,0-.81.22.69.69,0,0,0-.3.58q0,.55.78.75l1.33.32c1.2.3,1.81.93,1.81,1.92a1.87,1.87,0,0,1-.71,1.53A3,3,0,0,1,125.32,42.07Z"/><path class="cls-2" d="M139.39,35.21h5.37v1.23h-2v5.41h-1.38V36.44h-2Z"/><path class="cls-2" d="M161.51,41.09a3,3,0,0,1-2.27,1,2.9,2.9,0,0,1-2.24-1,3.64,3.64,0,0,1-.9-2.57A3.58,3.58,0,0,1,157,36a2.94,2.94,0,0,1,2.25-.94,3,3,0,0,1,2.27.94,3.52,3.52,0,0,1,.91,2.53A3.65,3.65,0,0,1,161.51,41.09ZM158,40.23a1.49,1.49,0,0,0,1.28.64,1.57,1.57,0,0,0,1.31-.64,2.76,2.76,0,0,0,.48-1.71,2.65,2.65,0,0,0-.48-1.65,1.58,1.58,0,0,0-1.31-.63,1.5,1.5,0,0,0-1.28.63,2.65,2.65,0,0,0-.47,1.65A2.79,2.79,0,0,0,158,40.23Z"/><path class="cls-2" d="M187.71,35.21h2.45c2.1,0,3.16,1.1,3.16,3.32a3.6,3.6,0,0,1-.76,2.46,2.79,2.79,0,0,1-2.21.86h-2.64Zm1.39,5.48h1.07a1.65,1.65,0,0,0,1.36-.5,2.68,2.68,0,0,0,.4-1.66,2.74,2.74,0,0,0-.42-1.7,1.93,1.93,0,0,0-1.53-.5h-.88Z"/><path class="cls-2" d="M206.62,39v1.69h3.55v1.16h-4.93V35.21h4.83v1.16h-3.45v1.44h3.11V39Z"/><path class="cls-2" d="M239.06,39.11l1-3.9h2v6.64h-1.29V39.36l.16-3.25-.46,2-1,3.73h-1.41l-1-3.8-.46-1.95.16,3.26v2.49h-1.28V35.21h2l1,3.9.27,1.32Z"/><path class="cls-2" d="M259.4,41.09a3,3,0,0,1-2.27,1,2.92,2.92,0,0,1-2.24-1,3.68,3.68,0,0,1-.89-2.57,3.58,3.58,0,0,1,.88-2.53,3,3,0,0,1,2.25-.94,3,3,0,0,1,2.27.94,3.47,3.47,0,0,1,.91,2.53A3.61,3.61,0,0,1,259.4,41.09Zm-3.54-.86a1.47,1.47,0,0,0,1.27.64,1.56,1.56,0,0,0,1.31-.64,2.7,2.7,0,0,0,.49-1.71,2.59,2.59,0,0,0-.49-1.65,1.56,1.56,0,0,0-1.31-.63,1.48,1.48,0,0,0-1.27.63,2.65,2.65,0,0,0-.48,1.65A2.8,2.8,0,0,0,255.86,40.23Z"/><path class="cls-2" d="M273.64,35.21v5.41h3.24v1.23h-4.62V35.21Z"/><path class="cls-2" d="M294.51,41.85H293l-.45-1.38h-2.41l-.45,1.38h-1.46l2.35-6.64h1.6Zm-3.68-3.34-.27.82h1.67l-.27-.82-.56-1.91Z"/><path class="cls-2" d="M309,42.07a3.12,3.12,0,0,1-2-.61,2.1,2.1,0,0,1-.78-1.67h1.35a1.11,1.11,0,0,0,.41.85,1.68,1.68,0,0,0,1.05.3,1.52,1.52,0,0,0,.89-.22.7.7,0,0,0,.33-.61.59.59,0,0,0-.23-.5,2.25,2.25,0,0,0-.79-.31L307.92,39a2.37,2.37,0,0,1-1.21-.67,1.72,1.72,0,0,1-.42-1.18,2,2,0,0,1,.64-1.48,2.58,2.58,0,0,1,1.84-.6,3,3,0,0,1,1.92.59,2.23,2.23,0,0,1,.79,1.59h-1.35a1.06,1.06,0,0,0-.43-.77,1.44,1.44,0,0,0-.92-.28,1.29,1.29,0,0,0-.8.22.69.69,0,0,0-.3.58c0,.37.26.62.77.75l1.33.32c1.21.3,1.81.93,1.81,1.92a1.87,1.87,0,0,1-.71,1.53A3,3,0,0,1,309,42.07Z"/></g></g></svg>