<svg width="50" height="40" viewBox="0 0 50 40" fill="none" xmlns="http://www.w3.org/2000/svg">
<path d="M27.3026 17.2514C26.2335 14.7569 23.7604 13.0117 20.876 13.0117C17.014 13.0117 13.886 16.1428 13.886 20.0017C13.886 23.8607 17.017 26.9918 20.876 26.9918C23.7604 26.9918 26.2335 25.2435 27.3026 22.7521H45.6046L49.1621 17.2514H27.3026Z" fill="#DA282A"/>
<path d="M8.23917 11.0591C10.2645 11.0591 11.9063 9.41724 11.9063 7.39196C11.9063 5.36667 10.2645 3.72485 8.23917 3.72485C6.21388 3.72485 4.57207 5.36667 4.57207 7.39196C4.57207 9.41724 6.21388 11.0591 8.23917 11.0591Z" fill="#DA282A"/>
<path d="M33.7018 11.0591C35.7271 11.0591 37.3689 9.41724 37.3689 7.39196C37.3689 5.36667 35.7271 3.72485 33.7018 3.72485C31.6765 3.72485 30.0347 5.36667 30.0347 7.39196C30.0347 9.41724 31.6765 11.0591 33.7018 11.0591Z" fill="#DA282A"/>
<path d="M8.23917 36.1563C10.2645 36.1563 11.9063 34.5145 11.9063 32.4892C11.9063 30.4639 10.2645 28.8221 8.23917 28.8221C6.21388 28.8221 4.57207 30.4639 4.57207 32.4892C4.57207 34.5145 6.21388 36.1563 8.23917 36.1563Z" fill="#DA282A"/>
<path d="M4.50504 23.687C6.53033 23.687 8.17214 22.0452 8.17214 20.0199C8.17214 17.9946 6.53033 16.3528 4.50504 16.3528C2.47976 16.3528 0.83794 17.9946 0.83794 20.0199C0.83794 22.0452 2.47976 23.687 4.50504 23.687Z" fill="#DA282A"/>
<path d="M20.9704 7.3342C22.9957 7.3342 24.6375 5.69239 24.6375 3.6671C24.6375 1.64182 22.9957 0 20.9704 0C18.9451 0 17.3033 1.64182 17.3033 3.6671C17.3033 5.69239 18.9451 7.3342 20.9704 7.3342Z" fill="#DA282A"/>
<path d="M20.9704 40C22.9957 40 24.6375 38.3582 24.6375 36.3329C24.6375 34.3076 22.9957 32.6658 20.9704 32.6658C18.9451 32.6658 17.3033 34.3076 17.3033 36.3329C17.3033 38.3582 18.9451 40 20.9704 40Z" fill="#DA282A"/>
<path d="M33.7018 36.1563C35.7271 36.1563 37.3689 34.5145 37.3689 32.4892C37.3689 30.4639 35.7271 28.8221 33.7018 28.8221C31.6765 28.8221 30.0347 30.4639 30.0347 32.4892C30.0347 34.5145 31.6765 36.1563 33.7018 36.1563Z" fill="#DA282A"/>
</svg>
